<?xml version="1.0" encoding="UTF-8"?>
<svg width="298px" height="191px" viewBox="0 0 298 191" version="1.1" xmlns="http://www.w3.org/2000/svg" xmlns:xlink="http://www.w3.org/1999/xlink">
    <!-- Generator: Sketch 43.1 (39012) - http://www.bohemiancoding.com/sketch -->
    <title>digital-icons</title>
    <desc>Created with Sketch.</desc>
    <defs>
        <filter x="-12.1%" y="-20.5%" width="124.6%" height="143.6%" filterUnits="objectBoundingBox" id="filter-1">
            <feOffset dx="0" dy="3" in="SourceAlpha" result="shadowOffsetOuter1"></feOffset>
            <feGaussianBlur stdDeviation="10" in="shadowOffsetOuter1" result="shadowBlurOuter1"></feGaussianBlur>
            <feComposite in="shadowBlurOuter1" in2="SourceAlpha" operator="out" result="shadowBlurOuter1"></feComposite>
            <feColorMatrix values="0 0 0 0 0.109803922   0 0 0 0 0.137254902   0 0 0 0 0.219607843  0 0 0 0.04 0" type="matrix" in="shadowBlurOuter1" result="shadowMatrixOuter1"></feColorMatrix>
            <feMerge>
                <feMergeNode in="shadowMatrixOuter1"></feMergeNode>
                <feMergeNode in="SourceGraphic"></feMergeNode>
            </feMerge>
        </filter>
        <path d="M20,11.9997284 C20,5.37246141 25.3699823,0 32.003983,0 L227.996017,0 C234.625634,0 240,5.37167139 240,11.9997284 L240,142 L20,142 L20,11.9997284 Z" id="path-2"></path>
        <path d="M30,11.0013636 C30,10.4483258 30.4404306,10 31.0049471,10 L228.995053,10 C229.55007,10 230,10.4465227 230,11.0013636 L230,128.998636 C230,129.551674 229.559569,130 228.995053,130 L31.0049471,130 C30.4499301,130 30,129.553477 30,128.998636 L30,11.0013636 Z" id="path-3"></path>
        <rect id="path-4" x="37" y="0" width="66" height="70" rx="6"></rect>
        <path d="M0,1.00247329 C0,0.448822582 0.457349233,0 0.993821882,0 L259.006178,0 C259.555051,0 260,0.455760956 260,1.00247329 L260,6 C260,9.3137085 257.320622,12 254.00293,12 L5.99706967,12 C2.68497955,12 0,9.30696577 0,6 L0,1.00247329 Z" id="path-5"></path>
        <path d="M105,0.990777969 C105,0.443586406 105.447526,0 105.998769,0 L154.001231,0 C154.552836,0 155,0.45097518 155,0.990777969 L155,3 C155,4.65685425 153.662621,6 152.003468,6 L107.996532,6 C106.341593,6 105,4.65348288 105,3 L105,0.990777969 Z" id="path-6"></path>
    </defs>
    <g id="Last_changes" stroke="none" stroke-width="1" fill="none" fill-rule="evenodd">
        <g id="4_1step" transform="translate(-915.000000, -446.000000)">
            <g id="1_Add_product_v3" transform="translate(386.000000, 153.000000)">
                <g id="digital-icons" filter="url(#filter-1)" transform="translate(548.000000, 312.000000)">
                    <g id="Rectangle-7">
                        <use fill="#FFFFFF" fill-rule="evenodd" xlink:href="#path-2"></use>
                        <path stroke="#CBD7E8" stroke-width="1.4" d="M19.3,11.9997284 L19.3,142 L19.3,142.7 L20,142.7 L240,142.7 L240.7,142.7 L240.7,142 L240.7,11.9997284 C240.7,4.98528223 235.012443,-0.7 227.996017,-0.7 L32.003983,-0.7 C24.9849131,-0.7 19.3,4.98433213 19.3,11.9997284 Z"></path>
                    </g>
                    <g id="Rectangle-7-Copy-3">
                        <use fill="#FFFFFF" fill-rule="evenodd" xlink:href="#path-3"></use>
                        <path stroke="#CBD7E8" stroke-width="1.4" d="M30.7,11.0013636 C30.7,10.8311685 30.8307783,10.7 31.0049471,10.7 L228.995053,10.7 C229.164849,10.7 229.3,10.8345016 229.3,11.0013636 L229.3,128.998636 C229.3,129.168832 229.169222,129.3 228.995053,129.3 L31.0049471,129.3 C30.835151,129.3 30.7,129.165498 30.7,128.998636 L30.7,11.0013636 Z"></path>
                    </g>
                    <g id="Group-9" transform="translate(60.000000, 35.000000)">
                        <g id="Group-15" transform="translate(0.000000, 13.000000)">
                            <rect id="Rectangle-8-Copy" fill="#F7F8FA" x="0" y="0" width="44" height="44" rx="6"></rect>
                            <g id="if_Streamline-48_185068" transform="translate(15.000000, 12.000000)">
                                <path d="M3.2287734,18.5952024 C1.88929814,18.5952024 0.799987793,17.5058921 0.799987793,16.1664168 C0.799987793,14.8269415 1.88929814,13.7376312 3.2287734,13.7376312 L5.65755901,13.7376312 L5.65755901,16.1664168 C5.65755901,17.4601499 4.52250653,18.5952024 3.2287734,18.5952024 Z" id="Shape" fill="#92CAED" fill-rule="nonzero"></path>
                                <path d="M11.32881,16.4092954 C9.98933476,16.4092954 8.90002441,15.319985 8.90002441,13.9805097 C8.90002441,12.6410345 9.98933476,11.5517241 11.32881,11.5517241 L13.7575956,11.5517241 L13.7575956,13.9805097 C13.7575956,15.2742429 12.6225432,16.4092954 11.32881,16.4092954 Z" id="Shape" fill="#92CAED" fill-rule="nonzero"></path>
                                <polyline id="Line" stroke="#92CAED" stroke-width="1.2" stroke-linecap="round" stroke-linejoin="round" points="5 14.4247959 5 5.11445108 13.1087008 2 13.1087008 12.6100416"></polyline>
                                <path d="M7.45447007,-0.478417129 C7.44370299,-1.03329102 7.84413909,-1.31958918 8.36447611,-1.11164489 L10.7718346,-0.149582939 L10.4839517,9.75043283 L8.56504946,8.98357454 C8.04909489,8.77738163 7.62216265,8.16350779 7.61133556,7.60554119 L7.45447007,-0.478417129 Z" id="Rectangle-path" fill="#92CAED" fill-rule="nonzero" transform="translate(9.103405, 4.133663) rotate(68.216678) translate(-9.103405, -4.133663) "></path>
                            </g>
                        </g>
                        <g id="Group-13" transform="translate(98.000000, 13.000000)">
                            <rect id="Rectangle-8-Copy-2" fill="#F7F8FA" x="0" y="0" width="44" height="44" rx="6"></rect>
                            <g id="Group-10" transform="translate(12.000000, 12.000000)">
                                <rect id="Rectangle-9" stroke="#ECB478" stroke-width="1.6" x="0.8" y="0.8" width="18.4" height="18.4" rx="4"></rect>
                                <path d="M9.50072998,7.74339593 C9.89155455,7.35257136 10.3193514,7.47405274 10.4547177,8.00871519 L11.3762568,11.6485621 C11.5123051,12.1859185 11.1842867,12.5105609 10.6496243,12.3751947 L7.00977733,11.4536555 C6.47242098,11.3176072 6.35035356,10.8937724 6.74445806,10.4996679 L9.50072998,7.74339593 Z" id="Rectangle-10" fill="#ECB478" transform="translate(8.959931, 9.959931) rotate(-45.000000) translate(-8.959931, -9.959931) "></path>
                                <path d="M18.5,16.5 L1,16.5" id="Line" stroke="#ECB478" stroke-width="1.60000002" stroke-linecap="square"></path>
                                <g id="Group-12" transform="translate(3.000000, 16.000000)" stroke="#ECB478" stroke-width="1.6" stroke-linecap="square">
                                    <path d="M0.8,0.5 L0.8,2.5" id="Line"></path>
                                    <path d="M3.8,0.5 L3.8,2.5" id="Line-Copy-2"></path>
                                    <path d="M6.8,0.5 L6.8,2.5" id="Line-Copy-3"></path>
                                    <path d="M9.8,0.5 L9.8,2.5" id="Line-Copy-4"></path>
                                    <path d="M12.8,0.5 L12.8,2.5" id="Line-Copy-5"></path>
                                </g>
                                <g id="Group-12-Copy" transform="translate(3.000000, 1.000000)" stroke="#ECB478" stroke-width="1.6" stroke-linecap="square">
                                    <path d="M0.8,0.5 L0.8,2.5" id="Line"></path>
                                    <path d="M3.8,0.5 L3.8,2.5" id="Line-Copy-2"></path>
                                    <path d="M6.8,0.5 L6.8,2.5" id="Line-Copy-3"></path>
                                    <path d="M9.8,0.5 L9.8,2.5" id="Line-Copy-4"></path>
                                    <path d="M12.8,0.5 L12.8,2.5" id="Line-Copy-5"></path>
                                </g>
                                <path d="M18.5,3.5 L1,3.5" id="Line-Copy" stroke="#ECB478" stroke-width="1.60000002" stroke-linecap="square"></path>
                            </g>
                        </g>
                        <g id="Rectangle-8">
                            <use fill="#F7F8FA" fill-rule="evenodd" xlink:href="#path-4"></use>
                            <rect stroke="#FFFFFF" stroke-width="3" x="35.5" y="-1.5" width="69" height="73" rx="6"></rect>
                        </g>
                        <path d="M78.4067378,40.477863 C77.9516961,40.6582492 77.4552226,40.7574468 76.9354374,40.7574468 C75.0840389,40.7574468 73.5283922,39.4989477 73.0873133,37.7957447 L70.9754868,37.7957447 L70.9754868,22.987234 C70.9754868,22.987234 72.7324258,22.987234 78.7472067,22.987234 C79.887792,22.3582051 81.2004772,22 82.5973419,22 C86.9861283,22 90.5439426,25.5359979 90.5439426,29.8978723 C90.5439426,30.6311935 90.4433826,31.3411716 90.2552201,32.0149285 C91.1547813,36.4518657 92.4718937,44.3783971 91.0716549,47.1617021 C89.0850047,51.1106383 85.1117044,50.6170213 83.1250542,47.6553191 C81.9443097,45.8950629 79.8840038,42.7443967 78.4067378,40.477863 Z M67.8703352,37.7957447 C67.4292564,39.4989477 65.8736096,40.7574468 64.0222112,40.7574468 C63.419844,40.7574468 62.8487844,40.6242249 62.3372339,40.3858095 C60.8562229,42.6583705 58.7557389,45.8711038 57.5589232,47.6553191 C55.572273,50.6170213 51.5989726,51.1106383 49.6123224,47.1617021 C48.2173508,44.3888668 49.5193256,36.5114262 50.4185882,32.0651465 C50.2212856,31.3764829 50.1156599,30.6494371 50.1156599,29.8978723 C50.1156599,25.5359979 53.6734742,22 58.0622606,22 C59.4591253,22 60.7718105,22.3582051 61.9123958,22.987234 C68.1916954,22.987234 70.9754868,22.987234 70.9754868,22.987234 L70.9754868,37.7957447 L67.8703352,37.7957447 Z M64.0222112,39.7702128 C65.6680061,39.7702128 67.0021864,38.4442136 67.0021864,36.8085106 C67.0021864,35.1728077 65.6680061,33.8468085 64.0222112,33.8468085 C62.3764163,33.8468085 61.0422359,35.1728077 61.0422359,36.8085106 C61.0422359,38.4442136 62.3764163,39.7702128 64.0222112,39.7702128 Z M76.9354374,39.7702128 C78.5812323,39.7702128 79.9154126,38.4442136 79.9154126,36.8085106 C79.9154126,35.1728077 78.5812323,33.8468085 76.9354374,33.8468085 C75.2896425,33.8468085 73.9554621,35.1728077 73.9554621,36.8085106 C73.9554621,38.4442136 75.2896425,39.7702128 76.9354374,39.7702128 Z M83.0419398,27.9816041 C83.870367,27.9816041 84.5419398,27.3141493 84.5419398,26.490802 C84.5419398,25.6674548 83.870367,25 83.0419398,25 C82.2135127,25 81.5419398,25.6674548 81.5419398,26.490802 C81.5419398,27.3141493 82.2135127,27.9816041 83.0419398,27.9816041 Z M86.0419398,30.9816041 C86.870367,30.9816041 87.5419398,30.3141493 87.5419398,29.490802 C87.5419398,28.6674548 86.870367,28 86.0419398,28 C85.2135127,28 84.5419398,28.6674548 84.5419398,29.490802 C84.5419398,30.3141493 85.2135127,30.9816041 86.0419398,30.9816041 Z M80.0419398,30.9816041 C80.870367,30.9816041 81.5419398,30.3141493 81.5419398,29.490802 C81.5419398,28.6674548 80.870367,28 80.0419398,28 C79.2135127,28 78.5419398,28.6674548 78.5419398,29.490802 C78.5419398,30.3141493 79.2135127,30.9816041 80.0419398,30.9816041 Z M83.0419398,33.9816041 C82.2135127,33.9816041 81.5419398,33.3141493 81.5419398,32.490802 C81.5419398,31.6674548 82.2135127,31 83.0419398,31 C83.870367,31 84.5419398,31.6674548 84.5419398,32.490802 C84.5419398,33.3141493 83.870367,33.9816041 83.0419398,33.9816041 Z M63.8419887,23 L76.8419887,23 L76.8419887,30.0026083 C76.8419887,31.1057373 75.948446,32 74.8392285,32 L65.8447488,32 C64.7386549,32 63.8419887,31.1041422 63.8419887,30.0026083 L63.8419887,23 Z M58.8419887,28.5 L58.8419887,26 L56.8419887,26 L56.8419887,28.5 L54.3419887,28.5 L54.3419887,30.5 L56.8419887,30.5 L56.8419887,33 L58.8419887,33 L58.8419887,30.5 L61.3419887,30.5 L61.3419887,28.5 L58.8419887,28.5 Z M64.8419887,23 L75.8419887,23 L75.8419887,29.4952612 C75.8419887,30.3263055 75.170448,31 74.3355501,31 L66.3484272,31 C65.5164442,31 64.8419887,30.3316845 64.8419887,29.4952612 L64.8419887,23 Z" id="Combined-Shape" fill="#AED97F"></path>
                    </g>
                    <g id="Group-7" transform="translate(0.000000, 137.000000)">
                        <g id="Rectangle-7-Copy">
                            <use fill="#FFFFFF" fill-rule="evenodd" xlink:href="#path-5"></use>
                            <path stroke="#CBD7E8" stroke-width="1.4" d="M0.7,1.00247329 C0.7,0.839691422 0.839679413,0.7 0.993821882,0.7 L259.006178,0.7 C259.163966,0.7 259.3,0.837874168 259.3,1.00247329 L259.3,6 C259.3,8.92922338 256.93191,11.3 254.00293,11.3 L5.99706967,11.3 C3.07410296,11.3 0.7,8.92289319 0.7,6 L0.7,1.00247329 Z"></path>
                        </g>
                        <g id="Rectangle-7-Copy-2">
                            <use fill="#F7F8FA" fill-rule="evenodd" xlink:href="#path-6"></use>
                            <path stroke="#CBD7E8" stroke-width="1.6" d="M105.8,0.990777969 C105.8,0.887028221 105.887752,0.8 105.998769,0.8 L154.001231,0.8 C154.108966,0.8 154.2,0.890770385 154.2,0.990777969 L154.2,3 C154.2,4.21686568 153.218956,5.2 152.003468,5.2 L107.996532,5.2 C106.78493,5.2 105.8,4.21316517 105.8,3 L105.8,0.990777969 Z"></path>
                        </g>
                    </g>
                </g>
            </g>
        </g>
    </g>
</svg>