<?xml version="1.0" encoding="UTF-8"?>
<svg width="50px" height="50px" viewBox="0 0 50 50" version="1.1" xmlns="http://www.w3.org/2000/svg" xmlns:xlink="http://www.w3.org/1999/xlink">
    <!-- Generator: Sketch 43.1 (39012) - http://www.bohemiancoding.com/sketch -->
    <title>phone-order</title>
    <desc>Created with Sketch.</desc>
    <defs></defs>
    <g id="Last_changes" stroke="none" stroke-width="1" fill="none" fill-rule="evenodd" stroke-linecap="square">
        <g id="phone-order" stroke="#708692" stroke-width="2">
            <g transform="translate(2.000000, 2.000000)" id="Line">
                <path d="M23,0 C10.2974508,0 0,10.2946578 0,23 L0,23 C0,35.7025492 10.2946578,46 23,46 L23,46 C35.7025492,46 46,35.7053422 46,23 L46,23 C46,10.2974508 35.7053422,0 23,0 L23,0 Z"></path>
                <path d="M17.06282,11.5785884 C15.5294867,10.8119217 11.31282,15.7952551 12.46282,20.3952551 C13.61282,24.9952551 18.9794867,31.5119217 23.5794867,33.8119217 C28.7444948,36.3944258 34.1256401,32.3571768 33.5461534,30.7452551 C32.9666667,29.1333333 30.08718,26.0666667 28.3666667,26.0666667 C26.6461534,26.0666667 27.2166667,29.9 24.5333333,28.75 C21.85,27.6 18.1462973,23.645687 17.4461534,21.5452551 C16.7460094,19.4448231 20.8961534,18.4785884 20.51282,16.5619217 C20.1294867,14.6452551 19.054519,12.5744379 17.06282,11.5785884 Z"></path>
            </g>
        </g>
    </g>
</svg>