<?xml version="1.0" encoding="UTF-8"?>
<svg width="389px" height="262px" viewBox="0 0 389 262" version="1.1" xmlns="http://www.w3.org/2000/svg" xmlns:xlink="http://www.w3.org/1999/xlink">
    <!-- Generator: Sketch 43.1 (39012) - http://www.bohemiancoding.com/sketch -->
    <title>welcome</title>
    <desc>Created with Sketch.</desc>
    <defs>
        <path d="M0,7.99464702 C0,3.57932539 3.57813388,0 8.0049239,0 L291.995076,0 C296.416073,0 300,3.57762838 300,7.99464702 L300,198.004338 C300,199.106512 299.112596,200 298.004947,200 L1.99505333,200 C0.8932158,200 0,199.108315 0,198.004338 L0,7.99464702 Z" id="path-1"></path>
        <filter x="-16.3%" y="-21.9%" width="132.6%" height="148.9%" filterUnits="objectBoundingBox" id="filter-2">
            <feMorphology radius="1.4" operator="dilate" in="SourceAlpha" result="shadowSpreadOuter1"></feMorphology>
            <feOffset dx="0" dy="5" in="shadowSpreadOuter1" result="shadowOffsetOuter1"></feOffset>
            <feGaussianBlur stdDeviation="15" in="shadowOffsetOuter1" result="shadowBlurOuter1"></feGaussianBlur>
            <feComposite in="shadowBlurOuter1" in2="SourceAlpha" operator="out" result="shadowBlurOuter1"></feComposite>
            <feColorMatrix values="0 0 0 0 0.109803922   0 0 0 0 0.137254902   0 0 0 0 0.219607843  0 0 0 0.1 0" type="matrix" in="shadowBlurOuter1"></feColorMatrix>
        </filter>
        <path d="M0,7.02173913 C0,3.14373969 3.14120616,0 7.02855527,0 L292.971445,0 C296.853209,0 300,3.15163064 300,7.02173913 L300,14.0434783 L0,14.0434783 L0,7.02173913 Z" id="path-3"></path>
    </defs>
    <g id="Last_changes" stroke="none" stroke-width="1" fill="none" fill-rule="evenodd">
        <g id="0_step" transform="translate(-652.000000, -174.000000)">
            <g id="welcome" transform="translate(640.000000, 200.000000)">
                <g id="setting-copy-3" opacity="0.100000001" transform="translate(67.169119, 177.169119) rotate(25.000000) translate(-67.169119, -177.169119) translate(17.169119, 127.169119)" stroke="#615FA3" stroke-width="2" fill-rule="nonzero">
                    <path d="M97.1814372,41.5980868 C97.4289147,41.4745865 97.7089455,41.1612577 97.8067386,40.8986898 L99.3004324,36.8882242 C99.3982993,36.6254583 99.3947636,36.2124209 99.2898623,35.9592283 L94.3894606,24.1314833 C94.285756,23.8811789 93.9947841,23.5838447 93.7399861,23.4675646 L89.8481975,21.6915013 C89.5932073,21.5751335 89.17477,21.5513744 88.9112025,21.6392303 L84.2871077,23.1805952 C84.0246099,23.2680945 83.5942501,23.2709887 83.3404085,23.1916055 L82.4194083,22.9035836 C80.6067501,20.6757355 78.5561171,18.6301659 76.3130792,16.8073811 L76.0250573,15.8796827 C75.9436388,15.6174395 75.9482118,15.1929302 76.0360676,14.9291234 L77.5774325,10.3008287 C77.6649318,10.0380924 77.6414415,9.61819991 77.5251615,9.36340195 L75.7490981,5.47161337 C75.6327303,5.21662314 75.3383721,4.92704016 75.0851795,4.82213889 L63.2574345,-0.0782628133 C63.0071302,-0.181967437 62.5912239,-0.18640848 62.328924,-0.0883474363 L58.3225507,1.4094387 C58.0600529,1.50757374 57.7472582,1.78693198 57.6227758,2.03565731 L55.4388255,6.39935801 C55.3148484,6.64707396 55.0118133,6.95390006 54.7755099,7.07759013 L53.9181425,7.52636842 C51.0421931,7.22763424 48.1459906,7.22257095 45.2902944,7.51624184 L44.4329269,7.07081264 C44.190565,6.94489805 43.8942859,6.64340466 43.770043,6.39515811 L41.5902926,2.03985721 C41.4665538,1.7926181 41.1532493,1.51234548 40.8909494,1.41401651 L36.8845761,-0.0878619467 C36.6220782,-0.186265115 36.2091786,-0.183164079 35.9558854,-0.0782628133 L24.1234375,4.82213889 C23.8730336,4.92584351 23.5756187,5.21681541 23.4593387,5.47161337 L21.6832753,9.36340195 C21.5669076,9.61839217 21.5431485,10.0366372 21.6310043,10.2999653 L23.1723692,14.9198602 C23.2598685,15.1821196 23.2619716,15.6130773 23.1816653,15.8678419 L22.8902944,16.7921912 C20.6624463,18.6048494 18.6118133,20.6554823 16.7940918,22.8985203 L15.8697425,23.1865422 C15.6084461,23.2679607 15.1848965,23.2633877 14.9213291,23.1755319 L10.2972343,21.634167 C10.0347365,21.5466677 9.61503723,21.570158 9.36023928,21.686438 L5.4684507,23.4625014 C5.21346047,23.5788691 4.92387749,23.8733069 4.81897622,24.1266002 L-0.0814254846,35.9590481 C-0.185130108,36.2094519 -0.189788715,36.6256564 -0.0919955972,36.8882242 L1.40169823,40.8986898 C1.49956514,41.1614558 1.77870601,41.4744679 2.02743135,41.5989502 L6.39113205,43.7829005 C6.63884799,43.9068777 6.9456741,44.2099127 7.06936416,44.4462161 L7.51814246,45.3035836 C7.21940828,48.1744697 7.21940828,51.0706722 7.50801587,53.9314317 L7.06258667,54.7887992 C6.93667209,55.0311611 6.6351787,55.3274401 6.38693214,55.4516831 L2.03163125,57.6314335 C1.78439214,57.7551723 1.50455464,58.0686944 1.40676152,58.3312622 L-0.0869323061,62.3417278 C-0.184799218,62.6044938 -0.181263459,63.0175312 -0.0763621934,63.2707238 L4.82403951,75.0984688 C4.92774413,75.3487731 5.21871603,75.6461073 5.47351399,75.7623874 L9.36530257,77.5384507 C9.62029279,77.6548185 10.0385378,77.6787699 10.3018659,77.5911535 L14.9217608,76.0539884 C15.1840202,75.9667276 15.6141868,75.9640266 15.8680283,76.0434098 L16.7890285,76.3314317 C18.6016868,78.5592798 20.6523197,80.6048494 22.8953576,82.4276342 L23.1833795,83.3486345 C23.264798,83.6089842 23.260225,84.0319585 23.1723692,84.2957654 L21.6310043,88.9240601 C21.543505,89.1867963 21.5672129,89.6066888 21.6837608,89.8614868 L23.4639165,93.7532754 C23.5805524,94.0082656 23.875128,94.2978486 24.1283206,94.4027498 L35.9560656,99.3031515 C36.2063699,99.4068562 36.6224937,99.4112972 36.8850615,99.3132362 L40.8955272,97.81545 C41.1582931,97.717315 41.4711129,97.4381491 41.5953559,97.1896631 L43.7751063,92.8301623 C43.898845,92.5826848 44.2016868,92.276052 44.4379902,92.1523619 L45.2953576,91.7035836 C48.171307,92.0023178 51.0675095,92.0023178 53.928269,91.7086469 L54.7822874,92.1574252 C55.0237026,92.2842865 55.3192142,92.5865474 55.4434571,92.8347939 L57.6232075,97.1900948 C57.7469463,97.4373339 58.0602508,97.7171714 58.3225507,97.8149645 L62.328924,99.3086584 C62.5914219,99.4065253 63.0042419,99.4029895 63.2574345,99.2980883 L75.0851795,94.3976866 C75.3354839,94.2939819 75.6328181,94.00301 75.7490981,93.7482121 L77.5251615,89.8564235 C77.6415293,89.6014333 77.6654806,89.1831882 77.5778642,88.9198602 L76.0406992,84.2999653 C75.9534383,84.0377059 75.9507374,83.6075393 76.0301206,83.3536978 L76.3181425,82.4326975 C78.5510538,80.614976 80.5966235,78.5643431 82.414345,76.3263684 L83.3353452,76.0383465 C83.5956949,75.9569281 84.0186693,75.961501 84.2824761,76.0493568 L88.9107708,77.5907218 C89.1735071,77.678221 89.5933996,77.6547308 89.8481975,77.5384507 L93.7399861,75.7623874 C93.9949763,75.6460196 94.2845593,75.3515818 94.3894606,75.0982886 L99.2898623,63.2658407 C99.3935669,63.0154368 99.3982255,62.5992323 99.3004324,62.3366645 L97.8067386,58.3261989 C97.7088717,58.0634329 97.4297308,57.7504209 97.1810055,57.6259385 L92.8173048,55.4419882 C92.5695888,55.318011 92.2627627,55.0157672 92.1390726,54.7803868 L91.6902944,53.9263684 C91.9890285,51.0554823 91.9890285,48.1592798 91.7004209,45.293457 L92.1458501,44.4360895 C92.2717647,44.1937276 92.5734504,43.8976409 92.8219364,43.7736373 L97.1814372,41.5980868 Z" id="Shape"></path>
                    <path d="M49.375,25 C35.9339971,25 25,35.9320219 25,49.375 C25,62.8179781 35.9339971,73.75 49.375,73.75 C62.8160029,73.75 73.75,62.8179781 73.75,49.375 C73.75,35.9320219 62.8160029,25 49.375,25 Z" id="Shape"></path>
                </g>
                <g id="Group-28" opacity="0.100000001" transform="translate(298.000000, 40.000000)" stroke="#615FA3" stroke-width="2" fill-rule="nonzero">
                    <g id="setting-copy-4" transform="translate(47.472595, 81.745322) rotate(25.000000) translate(-47.472595, -81.745322) translate(12.018049, 46.290777)">
                        <path d="M68.7860718,29.5589063 C69.0302611,29.4370469 69.3062671,29.1286975 69.3995369,28.8782744 L70.3673661,26.2797192 C70.4619843,26.025676 70.4535196,25.6141699 70.348021,25.3595356 L66.9882261,17.2502417 C66.882924,16.9960815 66.5941982,16.6972376 66.3511856,16.5863359 L63.8295265,15.4355472 C63.5830008,15.3230424 63.1706242,15.3026819 62.9141732,15.3881655 L59.899174,16.3931652 C59.640164,16.4795019 59.2208051,16.4840097 58.9596573,16.4023417 L58.4428531,16.2407229 C57.1575137,14.6609761 55.7034285,13.2104813 54.1129107,11.9179611 L53.9512919,11.3973984 C53.8700233,11.1356377 53.8749847,10.7107175 53.9604684,10.4540336 L54.9654681,7.43629602 C55.0518048,7.17705075 55.0289881,6.76352944 54.9180864,6.5205168 L53.7672977,3.9988577 C53.6547928,3.75233207 53.3580262,3.46731575 53.1033919,3.36181717 L44.994098,0.00202222737 C44.7399378,-0.103279914 44.3245513,-0.110378859 44.0743837,-0.0168534897 L41.4784802,0.953627298 C41.2246962,1.04850467 40.918587,1.32597815 40.7974658,1.56798774 L39.3734879,4.41320494 C39.2511581,4.65762947 38.9570672,4.95780464 38.7139624,5.08505484 L38.2328647,5.33687942 C36.1935551,5.12504973 34.1398842,5.1214594 32.114936,5.32969876 L31.6338383,5.07975346 C31.3919223,4.95407053 31.095627,4.65201026 30.9747387,4.41046652 L29.5534993,1.57072616 C29.4314046,1.32677213 29.1230784,1.05052916 28.8729108,0.956748258 L26.2770072,-0.0163841162 C26.0232232,-0.111520715 25.6118455,-0.10347635 25.35711,0.00202222737 L17.2445917,3.36181717 C16.9903305,3.46711931 16.6914046,3.75584506 16.580503,3.9988577 L15.4297143,6.5205168 C15.3172094,6.76704242 15.2968489,7.17922606 15.3823326,7.4354441 L16.3873323,10.4477049 C16.473669,10.7064796 16.4774153,11.1264092 16.3947977,11.3885067 L16.2312996,11.9071901 C14.6515528,13.1925296 13.1974676,14.6466148 11.9085378,16.2371326 L11.3898544,16.3987513 C11.1290387,16.48002 10.7050776,16.4750586 10.4486266,16.3895749 L7.43362744,15.3845752 C7.17461742,15.2982385 6.76128682,15.3210552 6.51827418,15.4319569 L3.99661508,16.5827456 C3.75008945,16.6952504 3.46507313,16.9920988 3.35957455,17.2468343 L-0.000220394089,25.3593526 C-0.105522536,25.6136138 -0.11283532,26.0292961 -0.0195654846,26.2797192 L0.948263716,28.8782744 C1.04288186,29.1323176 1.3201452,29.4386369 1.56215478,29.5597582 L4.40737199,30.983736 C4.65179652,31.1060659 4.95197169,31.4001567 5.07922189,31.6432616 L5.33104647,32.1243593 C5.11921678,34.1600785 5.11921678,36.2137494 5.3238658,38.2422879 L5.07392051,38.7233856 C4.94823757,38.9653017 4.6461773,39.2615969 4.40463357,39.3824853 L1.5648932,40.8037247 C1.32093917,40.9258193 1.04512389,41.2343594 0.95185405,41.4847825 L-0.0159751508,44.0833376 C-0.110593294,44.3373809 -0.102128638,44.748887 0.00336993963,45.0035213 L3.36316489,53.1128152 C3.46846703,53.3669754 3.75719277,53.6658193 4.00020541,53.776721 L6.52186451,54.9275097 C6.76839014,55.0400145 7.18057377,55.0605681 7.43679181,54.9753173 L10.4490526,53.973056 C10.7078273,53.8869546 11.1269955,53.8826375 11.3881433,53.9643055 L11.9049475,54.1259243 C13.190287,55.7056711 14.6443721,57.156166 16.23489,58.4486861 L16.3965087,58.9654903 C16.4777774,59.225361 16.4728159,59.6487491 16.3873323,59.905433 L15.3823326,62.9231705 C15.2959959,63.1824158 15.3190264,63.5959371 15.4301836,63.8389498 L16.5836239,66.3606089 C16.696388,66.6071345 16.9933648,66.8921508 17.247999,66.9976494 L25.357293,70.3574443 C25.6114531,70.4627465 26.0270535,70.4698454 26.2774766,70.37632 L28.8760317,69.4058393 C29.130075,69.3109619 29.4362013,69.0336814 29.5570896,68.7919048 L30.978329,65.949426 C31.1004236,65.7052367 31.3943238,65.4052522 31.6374286,65.278002 L32.1185263,65.0261775 C34.1578359,65.2380072 36.2115068,65.2380072 38.2400453,65.0297678 L38.7192637,65.2815924 C38.9602348,65.4082203 39.255764,65.7110466 39.3766523,65.9525904 L40.7978917,68.7923307 C40.9199864,69.0362848 41.2283126,69.3121001 41.4784802,69.4053699 L44.0743837,70.3731991 C44.3281677,70.4678172 44.7394637,70.4593526 44.994098,70.353854 L53.1033919,66.9940591 C53.3575521,66.8887569 53.656396,66.6000312 53.7672977,66.3570185 L54.9180864,63.8353594 C55.0305912,63.5888338 55.0511448,63.1766502 54.965894,62.9204321 L53.9636327,59.9081714 C53.8775313,59.6493966 53.8732142,59.2302284 53.9548823,58.9690806 L54.116501,58.4522764 C55.6998382,57.1633466 57.150333,55.7092615 58.4392628,54.122334 L58.956067,53.9607152 C59.2159377,53.8794465 59.6393258,53.884408 59.8960097,53.9698916 L62.9137473,54.9748914 C63.1729925,55.061228 63.5865138,55.0384113 63.8295265,54.9275097 L66.3511856,53.776721 C66.5977112,53.6642161 66.8827275,53.3673678 66.9882261,53.1126323 L70.348021,45.0001139 C70.4533232,44.7458527 70.460636,44.3301704 70.3673661,44.0797473 L69.3995369,41.4811922 C69.3049188,41.227149 69.0276554,40.9208296 68.7856459,40.7997084 L65.9404287,39.3757306 C65.6960041,39.2534007 65.395829,38.9600713 65.2685788,38.717916 L65.0167542,38.2386976 C65.2285839,36.2029784 65.2285839,34.1493075 65.0239348,32.1171786 L65.2738801,31.6360809 C65.3995631,31.3941649 65.7018164,31.0980626 65.943593,30.9774072 L68.7860718,29.5589063 Z" id="Shape"></path>
                        <path d="M35.0113636,17.7272727 C25.4804706,17.7272727 17.7272727,25.47907 17.7272727,35.0113636 C17.7272727,44.5436572 25.4804706,52.2954545 35.0113636,52.2954545 C44.5422566,52.2954545 52.2954545,44.5436572 52.2954545,35.0113636 C52.2954545,25.47907 44.5422566,17.7272727 35.0113636,17.7272727 Z" id="Shape"></path>
                    </g>
                    <g id="setting-copy-5" transform="translate(77.018049, 29.745322) rotate(15.000000) translate(-77.018049, -29.745322) translate(53.381686, 6.108958)">
                        <path d="M45.6964462,19.78625 C45.948121,19.660655 46.2327685,19.3423683 46.3289394,19.0841559 L46.8489959,17.6878398 C46.9466375,17.4256789 46.9428089,17.0128662 46.8342263,16.750788 L44.7232718,11.6557301 C44.6174732,11.4003716 44.3216404,11.0974965 44.0710689,10.9831453 L42.7160724,10.3647768 C42.4616693,10.2486769 42.0486469,10.2234888 41.7720793,10.3156779 L40.1034855,10.8718759 C39.8365356,10.9608592 39.4118625,10.9678635 39.1417657,10.8833969 L38.9619021,10.8271486 C38.1050091,9.77398406 37.135619,8.80698751 36.0752738,7.94530742 L36.0190255,7.76413567 C35.9364051,7.49802101 35.9383573,7.07531668 36.0305465,6.7984979 L36.5867445,5.12838851 C36.6757278,4.86119616 36.6519969,4.43452788 36.5376456,4.18395644 L35.9192771,2.8289599 C35.8031773,2.57455682 35.5087705,2.2853397 35.2466923,2.17675701 L30.1516344,0.0658025946 C29.8962759,-0.039996039 29.4730159,-0.0449171575 29.215067,0.0515172772 L27.8201757,0.572998595 C27.5582823,0.670907665 27.2483102,0.945421874 27.1234574,1.19488733 L26.323845,2.79257445 C26.2009516,3.03812505 25.9074487,3.33866616 25.6560131,3.47027696 L25.4885764,3.55791962 C24.1290367,3.41669982 22.7599228,3.41430627 21.4099573,3.5531325 L21.2425206,3.4661439 C20.9965807,3.33837044 20.6997293,3.04002199 20.5693582,2.779531 L19.7828004,1.20793079 C19.656963,0.956498416 19.3387006,0.671605696 19.0807517,0.574907779 L17.6858604,0.0520016489 C17.423967,-0.0461749328 17.0112915,-0.042780101 16.7491091,0.0658025946 L11.6520253,2.17675701 C11.3965653,2.28255564 11.0936079,2.57838846 10.9792567,2.8289599 L10.3608881,4.18395644 C10.2447883,4.43835951 10.2196001,4.8511941 10.3117893,5.12751048 L10.8679873,6.79458882 C10.9569706,7.06129625 10.9632175,7.48653009 10.8777687,7.75760905 L10.8208664,7.93812675 C9.76770187,8.79501973 8.79831176,9.76440983 7.93902523,10.8247551 L7.75850752,10.8810033 C7.49335357,10.9636238 7.07161586,10.9616715 6.79504828,10.8694823 L5.12645442,10.3132844 C4.85950452,10.2243011 4.4330328,10.248032 4.18246135,10.3623832 L2.82746482,10.9807518 C2.57306174,11.0968516 2.28384462,11.391338 2.17526192,11.6535204 L0.0643075136,16.7506042 C-0.0414911199,17.0060642 -0.0466331281,17.4296274 0.0495378245,17.6878398 L0.56959433,19.0841559 C0.667235889,19.3463168 0.941533237,19.6565057 1.1909987,19.7813585 L2.78868582,20.5809709 C3.03423641,20.7038644 3.33477753,20.9973673 3.46638833,21.2488028 L3.55403098,21.4162395 C3.41281119,22.7733857 3.41281119,24.1424996 3.54924387,25.4948586 L3.46225527,25.6622953 C3.3344818,25.9082352 3.03613336,26.2050866 2.77564236,26.3354577 L1.20404215,27.1220156 C0.952609779,27.247853 0.668158838,27.5663363 0.571987886,27.8245487 L0.0519313803,29.2208648 C-0.0457101792,29.4830257 -0.0418816262,29.8958384 0.0667010694,30.1579166 L2.17765548,35.2529745 C2.28345411,35.508333 2.57928693,35.8112081 2.82985837,35.9255593 L4.18485491,36.5439278 C4.43925799,36.6600277 4.85209257,36.6854037 5.12840896,36.5934657 L6.79548729,36.0387832 C7.06219473,35.9500424 7.48667123,35.9432346 7.75676802,36.0277013 L7.93663167,36.0839495 C8.79352465,37.1371141 9.76291475,38.1041106 10.82326,38.9657907 L10.8795082,39.1456544 C10.9621287,39.4098476 10.9601765,39.8309944 10.8679873,40.1078131 L10.3117893,41.7779225 C10.222806,42.0451149 10.2467578,42.4717832 10.3613725,42.7223546 L10.9811659,44.0773511 C11.0975332,44.3317542 11.3921569,44.6209713 11.654235,44.729554 L16.749293,46.8405084 C17.0046515,46.9463071 17.4281323,46.9512282 17.6863447,46.8547938 L19.0826608,46.3333124 C19.3448217,46.2354034 19.6548228,45.961077 19.7851939,45.7003348 L20.5717518,44.1272191 C20.6975892,43.8755442 20.9934786,43.5700384 21.2449142,43.4384276 L21.4123509,43.350785 C22.7718906,43.4920048 24.1410045,43.4920048 25.4933635,43.3531785 L25.6601462,43.4408212 C25.9051254,43.5695554 26.201198,43.8686826 26.3315691,44.1291736 L27.1181269,45.7007738 C27.2439644,45.9522062 27.5622267,46.2366571 27.8201757,46.3328281 L29.215067,46.8528846 C29.4769603,46.9505261 29.8895562,46.9466976 30.1516344,46.8381149 L35.2466923,44.7271605 C35.5020508,44.6213618 35.8049259,44.325529 35.9192771,44.0749576 L36.5376456,42.719961 C36.6537455,42.465558 36.6791215,42.0527234 36.5871835,41.776407 L36.032501,40.1093287 C35.9437602,39.8426212 35.9369524,39.4181447 36.0214191,39.1480479 L36.0776673,38.9681843 C37.1332255,38.1088978 38.100222,37.1395076 38.9595085,36.081556 L39.1393722,36.0253077 C39.4035654,35.9426873 39.8247122,35.9446395 40.1015309,36.0368287 L41.7716403,36.5930266 C42.0388327,36.6820099 42.465501,36.658279 42.7160724,36.5439278 L44.0710689,35.9255593 C44.325472,35.8094594 44.6146891,35.514973 44.7232718,35.2527906 L46.8342263,30.1557068 C46.9400249,29.9002468 46.9451669,29.4766836 46.8489959,29.2184712 L46.3289394,27.8221551 C46.2312979,27.5599942 45.9570005,27.2498053 45.7075351,27.1249525 L44.1098479,26.3253401 C43.8642974,26.2024466 43.5637562,25.9097011 43.4321454,25.6592477 L43.3445028,25.4924651 C43.4857226,24.1353189 43.4857226,22.766205 43.3492899,21.4114524 L43.4362785,21.2440157 C43.564052,20.9980758 43.8625882,20.7014122 44.1233304,20.5712923 L45.6964462,19.78625 Z" id="Shape"></path>
                        <path d="M23.3409091,11.8181818 C16.9869804,11.8181818 11.8181818,16.9860467 11.8181818,23.3409091 C11.8181818,29.6957715 16.9869804,34.8636364 23.3409091,34.8636364 C29.6948378,34.8636364 34.8636364,29.6957715 34.8636364,23.3409091 C34.8636364,16.9860467 29.6948378,11.8181818 23.3409091,11.8181818 Z" id="Shape"></path>
                    </g>
                </g>
                <g id="Group-9" transform="translate(43.000000, 0.000000)">
                    <g id="Rectangle-3">
                        <use fill="black" fill-opacity="1" filter="url(#filter-2)" xlink:href="#path-1"></use>
                        <use fill="#FFFFFF" fill-rule="evenodd" xlink:href="#path-1"></use>
                        <path stroke="#CBD7E8" stroke-width="1.4" d="M-0.7,7.99464702 L-0.7,198.004338 C-0.7,199.494341 0.506043607,200.7 1.99505333,200.7 L298.004947,200.7 C299.497552,200.7 300.7,199.49476 300.7,198.004338 L300.7,7.99464702 C300.7,3.19139069 296.803036,-0.7 291.995076,-0.7 L8.0049239,-0.7 C3.19365807,-0.7 -0.7,3.19060401 -0.7,7.99464702 Z"></path>
                    </g>
                    <path d="M52.7128906,51 L51.4824219,51 L49.3217773,43.8295898 C49.2192378,43.5122054 49.1044928,43.1118188 48.9775391,42.628418 C48.8505853,42.1450171 48.784668,41.8544927 48.7797852,41.7568359 C48.6723627,42.4013704 48.501466,43.1069298 48.2670898,43.8735352 L46.1723633,51 L44.9418945,51 L42.0927734,40.2919922 L43.4111328,40.2919922 L45.1030273,46.9057617 C45.3374035,47.8335007 45.5083002,48.6733361 45.6157227,49.425293 C45.7475593,48.5317338 45.9428698,47.6577191 46.2016602,46.8032227 L48.1206055,40.2919922 L49.4389648,40.2919922 L51.453125,46.8618164 C51.6875012,47.6186561 51.8852531,48.4731398 52.0463867,49.425293 C52.1391606,48.7319301 52.3149401,47.887212 52.5737305,46.8911133 L54.2583008,40.2919922 L55.5766602,40.2919922 L52.7128906,51 Z M60.1616211,51.1464844 C58.9750917,51.1464844 58.0388218,50.7851599 57.3527832,50.0625 C56.6667446,49.3398401 56.3237305,48.3364322 56.3237305,47.0522461 C56.3237305,45.7582943 56.6423308,44.7304726 57.279541,43.96875 C57.9167512,43.2070274 58.7724556,42.8261719 59.8466797,42.8261719 C60.8525441,42.8261719 61.6484346,43.1569791 62.234375,43.8186035 C62.8203154,44.4802279 63.1132812,45.3530219 63.1132812,46.4370117 L63.1132812,47.2060547 L57.5834961,47.2060547 C57.6079103,48.1484422 57.845945,48.8637671 58.2976074,49.3520508 C58.7492698,49.8403345 59.3852498,50.0844727 60.2055664,50.0844727 C61.0698285,50.0844727 61.9243122,49.9038104 62.769043,49.5424805 L62.769043,50.6264648 C62.3393533,50.8120126 61.9328632,50.945068 61.5495605,51.0256348 C61.1662578,51.1062016 60.703616,51.1464844 60.1616211,51.1464844 Z M59.8320312,43.8442383 C59.1874968,43.8442383 58.6735859,44.0541971 58.2902832,44.4741211 C57.9069805,44.8940451 57.6811527,45.4750939 57.612793,46.2172852 L61.8095703,46.2172852 C61.8095703,45.4506798 61.6386736,44.8635274 61.296875,44.4558105 C60.9550764,44.0480937 60.4668,43.8442383 59.8320312,43.8442383 Z M66.4018555,51 L65.1860352,51 L65.1860352,39.6035156 L66.4018555,39.6035156 L66.4018555,51 Z M72.1879883,51.1464844 C71.0258731,51.1464844 70.1262239,50.7888219 69.4890137,50.0734863 C68.8518035,49.3581507 68.5332031,48.3461979 68.5332031,47.0375977 C68.5332031,45.6948175 68.8566862,44.6572302 69.5036621,43.9248047 C70.150638,43.1923792 71.0722596,42.8261719 72.2685547,42.8261719 C72.6542988,42.8261719 73.0400371,42.8676754 73.4257812,42.9506836 C73.8115254,43.0336918 74.1142567,43.1313471 74.3339844,43.2436523 L73.9604492,44.2763672 C73.6918932,44.1689448 73.3989274,44.0798343 73.081543,44.0090332 C72.7641586,43.9382321 72.4833997,43.902832 72.2392578,43.902832 C70.6083903,43.902832 69.7929688,44.9428607 69.7929688,47.0229492 C69.7929688,48.0092823 69.9919414,48.7661106 70.3898926,49.293457 C70.7878438,49.8208034 71.3774375,50.0844727 72.1586914,50.0844727 C72.8276401,50.0844727 73.5136684,49.9404311 74.2167969,49.6523438 L74.2167969,50.7290039 C73.6796848,51.0073256 73.003422,51.1464844 72.1879883,51.1464844 Z M83.0498047,46.9790039 C83.0498047,48.2876042 82.7202181,49.3093225 82.0610352,50.0441895 C81.4018522,50.7790564 80.4912167,51.1464844 79.3291016,51.1464844 C78.6113245,51.1464844 77.9741239,50.978029 77.4174805,50.6411133 C76.8608371,50.3041975 76.4311539,49.8208039 76.128418,49.190918 C75.8256821,48.561032 75.6743164,47.8237347 75.6743164,46.9790039 C75.6743164,45.6704036 76.0014616,44.6511267 76.6557617,43.9211426 C77.3100619,43.1911585 78.2182559,42.8261719 79.3803711,42.8261719 C80.5034236,42.8261719 81.3957486,43.1997033 82.057373,43.9467773 C82.7189974,44.6938514 83.0498047,45.7045835 83.0498047,46.9790039 Z M76.934082,46.9790039 C76.934082,48.0043997 77.1391581,48.7856418 77.5493164,49.3227539 C77.9594747,49.859866 78.562496,50.128418 79.3583984,50.128418 C80.1543009,50.128418 80.7585429,49.8610867 81.1711426,49.326416 C81.5837423,48.7917454 81.7900391,48.0092825 81.7900391,46.9790039 C81.7900391,45.958491 81.5837423,45.1833523 81.1711426,44.6535645 C80.7585429,44.1237766 80.1494181,43.8588867 79.34375,43.8588867 C78.5478476,43.8588867 77.9472677,44.1201146 77.5419922,44.6425781 C77.1367167,45.1650417 76.934082,45.9438425 76.934082,46.9790039 Z M95.4130859,51 L95.4130859,45.777832 C95.4130859,45.1381804 95.2763686,44.6584489 95.0029297,44.338623 C94.7294908,44.0187972 94.3046904,43.8588867 93.7285156,43.8588867 C92.9716759,43.8588867 92.4125995,44.0761697 92.0512695,44.5107422 C91.6899396,44.9453147 91.5092773,45.6142533 91.5092773,46.5175781 L91.5092773,51 L90.293457,51 L90.293457,45.777832 C90.293457,45.1381804 90.1567396,44.6584489 89.8833008,44.338623 C89.6098619,44.0187972 89.1826201,43.8588867 88.6015625,43.8588867 C87.8398399,43.8588867 87.2819842,44.0871559 86.9279785,44.5437012 C86.5739728,45.0002464 86.3969727,45.74853 86.3969727,46.7885742 L86.3969727,51 L85.1811523,51 L85.1811523,42.9726562 L86.1699219,42.9726562 L86.3676758,44.0712891 L86.4262695,44.0712891 C86.6557629,43.6806621 86.979246,43.3754894 87.3967285,43.1557617 C87.8142111,42.9360341 88.2817357,42.8261719 88.7993164,42.8261719 C90.0542055,42.8261719 90.8745098,43.2802689 91.2602539,44.1884766 L91.3188477,44.1884766 C91.5581067,43.7685526 91.9047829,43.4365247 92.3588867,43.1923828 C92.8129906,42.948241 93.3305635,42.8261719 93.9116211,42.8261719 C94.8198288,42.8261719 95.4997536,43.0593238 95.951416,43.5256348 C96.4030784,43.9919457 96.6289062,44.7377878 96.6289062,45.7631836 L96.6289062,51 L95.4130859,51 Z M102.524902,51.1464844 C101.338373,51.1464844 100.402103,50.7851599 99.7160645,50.0625 C99.0300259,49.3398401 98.6870117,48.3364322 98.6870117,47.0522461 C98.6870117,45.7582943 99.005612,44.7304726 99.6428223,43.96875 C100.280032,43.2070274 101.135737,42.8261719 102.209961,42.8261719 C103.215825,42.8261719 104.011716,43.1569791 104.597656,43.8186035 C105.183597,44.4802279 105.476562,45.3530219 105.476562,46.4370117 L105.476562,47.2060547 L99.9467773,47.2060547 C99.9711915,48.1484422 100.209226,48.8637671 100.660889,49.3520508 C101.112551,49.8403345 101.748531,50.0844727 102.568848,50.0844727 C103.43311,50.0844727 104.287593,49.9038104 105.132324,49.5424805 L105.132324,50.6264648 C104.702635,50.8120126 104.296144,50.945068 103.912842,51.0256348 C103.529539,51.1062016 103.066897,51.1464844 102.524902,51.1464844 Z M102.195312,43.8442383 C101.550778,43.8442383 101.036867,44.0541971 100.653564,44.4741211 C100.270262,44.8940451 100.044434,45.4750939 99.9760742,46.2172852 L104.172852,46.2172852 C104.172852,45.4506798 104.001955,44.8635274 103.660156,44.4558105 C103.318358,44.0480937 102.830081,43.8442383 102.195312,43.8442383 Z M114.038574,50.1430664 C114.253419,50.1430664 114.460936,50.1271974 114.661133,50.095459 C114.861329,50.0637205 115.020019,50.0307619 115.137207,49.996582 L115.137207,50.9267578 C115.00537,50.9902347 114.811281,51.0427244 114.554932,51.0842285 C114.298583,51.1257326 114.067872,51.1464844 113.862793,51.1464844 C112.310051,51.1464844 111.533691,50.3286215 111.533691,48.6928711 L111.533691,43.9174805 L110.383789,43.9174805 L110.383789,43.331543 L111.533691,42.8261719 L112.046387,41.1123047 L112.749512,41.1123047 L112.749512,42.9726562 L115.078613,42.9726562 L115.078613,43.9174805 L112.749512,43.9174805 L112.749512,48.6416016 C112.749512,49.1250024 112.864257,49.4960925 113.09375,49.7548828 C113.323243,50.0136732 113.638182,50.1430664 114.038574,50.1430664 Z M123.669922,46.9790039 C123.669922,48.2876042 123.340335,49.3093225 122.681152,50.0441895 C122.021969,50.7790564 121.111334,51.1464844 119.949219,51.1464844 C119.231442,51.1464844 118.594241,50.978029 118.037598,50.6411133 C117.480954,50.3041975 117.051271,49.8208039 116.748535,49.190918 C116.445799,48.561032 116.294434,47.8237347 116.294434,46.9790039 C116.294434,45.6704036 116.621579,44.6511267 117.275879,43.9211426 C117.930179,43.1911585 118.838373,42.8261719 120.000488,42.8261719 C121.123541,42.8261719 122.015866,43.1997033 122.67749,43.9467773 C123.339115,44.6938514 123.669922,45.7045835 123.669922,46.9790039 Z M117.554199,46.9790039 C117.554199,48.0043997 117.759275,48.7856418 118.169434,49.3227539 C118.579592,49.859866 119.182613,50.128418 119.978516,50.128418 C120.774418,50.128418 121.37866,49.8610867 121.79126,49.326416 C122.203859,48.7917454 122.410156,48.0092825 122.410156,46.9790039 C122.410156,45.958491 122.203859,45.1833523 121.79126,44.6535645 C121.37866,44.1237766 120.769535,43.8588867 119.963867,43.8588867 C119.167965,43.8588867 118.567385,44.1201146 118.162109,44.6425781 C117.756834,45.1650417 117.554199,45.9438425 117.554199,46.9790039 Z M137.007324,51 L135.59375,51 L132.715332,46.2905273 L129.785645,51 L128.467285,51 L132.026855,45.4042969 L128.708984,40.2919922 L130.085938,40.2919922 L132.744629,44.5327148 L135.425293,40.2919922 L136.750977,40.2919922 L133.433105,45.3603516 L137.007324,51 Z M137.681152,47.5356445 L137.681152,46.4223633 L141.277344,46.4223633 L141.277344,47.5356445 L137.681152,47.5356445 Z M147.949707,41.2514648 C146.772943,41.2514648 145.843998,41.6433066 145.162842,42.427002 C144.481686,43.2106973 144.141113,44.2836846 144.141113,45.6459961 C144.141113,47.0473703 144.469479,48.1301231 145.126221,48.8942871 C145.782962,49.6584511 146.719232,50.0405273 147.935059,50.0405273 C148.682133,50.0405273 149.534175,49.9062513 150.491211,49.6376953 L150.491211,50.7290039 C149.74902,51.0073256 148.833502,51.1464844 147.744629,51.1464844 C146.167473,51.1464844 144.950444,50.6679735 144.093506,49.7109375 C143.236568,48.7539015 142.808105,47.3940518 142.808105,45.6313477 C142.808105,44.5278265 143.014402,43.5610393 143.427002,42.730957 C143.839602,41.9008748 144.435299,41.2612327 145.214111,40.8120117 C145.992924,40.3627907 146.909663,40.1381836 147.964355,40.1381836 C149.087408,40.1381836 150.068843,40.3432597 150.908691,40.753418 L150.381348,41.8227539 C149.570797,41.4418926 148.760258,41.2514648 147.949707,41.2514648 Z M157.581055,51 L157.339355,49.8574219 L157.280762,49.8574219 C156.880369,50.3603541 156.481203,50.7009268 156.083252,50.8791504 C155.685301,51.0573739 155.18848,51.1464844 154.592773,51.1464844 C153.796871,51.1464844 153.173098,50.9414083 152.721436,50.53125 C152.269773,50.1210917 152.043945,49.5376014 152.043945,48.7807617 C152.043945,47.1596599 153.340319,46.310059 155.933105,46.2319336 L157.29541,46.1879883 L157.29541,45.6899414 C157.29541,45.0600554 157.159913,44.5949722 156.888916,44.2946777 C156.617919,43.9943833 156.184573,43.8442383 155.588867,43.8442383 C154.919919,43.8442383 154.16309,44.0493144 153.318359,44.4594727 L152.944824,43.5292969 C153.340334,43.3144521 153.773679,43.1459967 154.244873,43.0239258 C154.716067,42.9018549 155.188474,42.8408203 155.662109,42.8408203 C156.619145,42.8408203 157.328367,43.0532205 157.789795,43.4780273 C158.251223,43.9028342 158.481934,44.5839797 158.481934,45.5214844 L158.481934,51 L157.581055,51 Z M154.834473,50.1430664 C155.591312,50.1430664 156.185789,49.935549 156.61792,49.5205078 C157.050051,49.1054667 157.266113,48.5244178 157.266113,47.7773438 L157.266113,47.0522461 L156.050293,47.1035156 C155.083491,47.1376955 154.386477,47.2878405 153.959229,47.5539551 C153.53198,47.8200697 153.318359,48.2338839 153.318359,48.7954102 C153.318359,49.2348655 153.451415,49.5693348 153.717529,49.7988281 C153.983644,50.0283215 154.355955,50.1430664 154.834473,50.1430664 Z M164.648926,42.8261719 C165.005373,42.8261719 165.325194,42.8554685 165.608398,42.9140625 L165.439941,44.0419922 C165.107908,43.9687496 164.814943,43.9321289 164.561035,43.9321289 C163.911618,43.9321289 163.356203,44.1957981 162.894775,44.7231445 C162.433347,45.2504909 162.202637,45.9072226 162.202637,46.6933594 L162.202637,51 L160.986816,51 L160.986816,42.9726562 L161.990234,42.9726562 L162.129395,44.4594727 L162.187988,44.4594727 C162.485841,43.9370091 162.844724,43.5341811 163.264648,43.2509766 C163.684572,42.967772 164.145994,42.8261719 164.648926,42.8261719 Z M169.702637,50.1430664 C169.917482,50.1430664 170.124999,50.1271974 170.325195,50.095459 C170.525392,50.0637205 170.684081,50.0307619 170.80127,49.996582 L170.80127,50.9267578 C170.669433,50.9902347 170.475343,51.0427244 170.218994,51.0842285 C169.962645,51.1257326 169.731935,51.1464844 169.526855,51.1464844 C167.974113,51.1464844 167.197754,50.3286215 167.197754,48.6928711 L167.197754,43.9174805 L166.047852,43.9174805 L166.047852,43.331543 L167.197754,42.8261719 L167.710449,41.1123047 L168.413574,41.1123047 L168.413574,42.9726562 L170.742676,42.9726562 L170.742676,43.9174805 L168.413574,43.9174805 L168.413574,48.6416016 C168.413574,49.1250024 168.528319,49.4960925 168.757812,49.7548828 C168.987306,50.0136732 169.302244,50.1430664 169.702637,50.1430664 Z M185.032227,45.543457 C185.032227,47.311044 184.552495,48.6623488 183.593018,49.5974121 C182.63354,50.5324754 181.252939,51 179.451172,51 L176.484863,51 L176.484863,40.2919922 L179.766113,40.2919922 C181.431161,40.2919922 182.725093,40.7534134 183.647949,41.6762695 C184.570805,42.5991257 185.032227,43.8881753 185.032227,45.543457 Z M183.713867,45.5874023 C183.713867,44.190911 183.363529,43.1386754 182.662842,42.4306641 C181.962155,41.7226527 180.920905,41.3686523 179.539062,41.3686523 L177.72998,41.3686523 L177.72998,49.9233398 L179.246094,49.9233398 C180.730476,49.9233398 181.846188,49.5583533 182.593262,48.8283691 C183.340336,48.098385 183.713867,47.0180736 183.713867,45.5874023 Z M190.62793,51.1464844 C189.4414,51.1464844 188.50513,50.7851599 187.819092,50.0625 C187.133053,49.3398401 186.790039,48.3364322 186.790039,47.0522461 C186.790039,45.7582943 187.108639,44.7304726 187.74585,43.96875 C188.38306,43.2070274 189.238764,42.8261719 190.312988,42.8261719 C191.318853,42.8261719 192.114743,43.1569791 192.700684,43.8186035 C193.286624,44.4802279 193.57959,45.3530219 193.57959,46.4370117 L193.57959,47.2060547 L188.049805,47.2060547 C188.074219,48.1484422 188.312254,48.8637671 188.763916,49.3520508 C189.215578,49.8403345 189.851558,50.0844727 190.671875,50.0844727 C191.536137,50.0844727 192.390621,49.9038104 193.235352,49.5424805 L193.235352,50.6264648 C192.805662,50.8120126 192.399172,50.945068 192.015869,51.0256348 C191.632566,51.1062016 191.169925,51.1464844 190.62793,51.1464844 Z M190.29834,43.8442383 C189.653805,43.8442383 189.139894,44.0541971 188.756592,44.4741211 C188.373289,44.8940451 188.147461,45.4750939 188.079102,46.2172852 L192.275879,46.2172852 C192.275879,45.4506798 192.104982,44.8635274 191.763184,44.4558105 C191.421385,44.0480937 190.933109,43.8442383 190.29834,43.8442383 Z M205.884277,51 L205.884277,45.777832 C205.884277,45.1381804 205.74756,44.6584489 205.474121,44.338623 C205.200682,44.0187972 204.775882,43.8588867 204.199707,43.8588867 C203.442867,43.8588867 202.883791,44.0761697 202.522461,44.5107422 C202.161131,44.9453147 201.980469,45.6142533 201.980469,46.5175781 L201.980469,51 L200.764648,51 L200.764648,45.777832 C200.764648,45.1381804 200.627931,44.6584489 200.354492,44.338623 C200.081053,44.0187972 199.653811,43.8588867 199.072754,43.8588867 C198.311031,43.8588867 197.753176,44.0871559 197.39917,44.5437012 C197.045164,45.0002464 196.868164,45.74853 196.868164,46.7885742 L196.868164,51 L195.652344,51 L195.652344,42.9726562 L196.641113,42.9726562 L196.838867,44.0712891 L196.897461,44.0712891 C197.126954,43.6806621 197.450437,43.3754894 197.86792,43.1557617 C198.285402,42.9360341 198.752927,42.8261719 199.270508,42.8261719 C200.525397,42.8261719 201.345701,43.2802689 201.731445,44.1884766 L201.790039,44.1884766 C202.029298,43.7685526 202.375974,43.4365247 202.830078,43.1923828 C203.284182,42.948241 203.801755,42.8261719 204.382812,42.8261719 C205.29102,42.8261719 205.970945,43.0593238 206.422607,43.5256348 C206.87427,43.9919457 207.100098,44.7377878 207.100098,45.7631836 L207.100098,51 L205.884277,51 Z M216.533691,46.9790039 C216.533691,48.2876042 216.204105,49.3093225 215.544922,50.0441895 C214.885739,50.7790564 213.975103,51.1464844 212.812988,51.1464844 C212.095211,51.1464844 211.458011,50.978029 210.901367,50.6411133 C210.344724,50.3041975 209.915041,49.8208039 209.612305,49.190918 C209.309569,48.561032 209.158203,47.8237347 209.158203,46.9790039 C209.158203,45.6704036 209.485348,44.6511267 210.139648,43.9211426 C210.793949,43.1911585 211.702143,42.8261719 212.864258,42.8261719 C213.98731,42.8261719 214.879635,43.1997033 215.54126,43.9467773 C216.202884,44.6938514 216.533691,45.7045835 216.533691,46.9790039 Z M210.417969,46.9790039 C210.417969,48.0043997 210.623045,48.7856418 211.033203,49.3227539 C211.443361,49.859866 212.046383,50.128418 212.842285,50.128418 C213.638188,50.128418 214.24243,49.8610867 214.655029,49.326416 C215.067629,48.7917454 215.273926,48.0092825 215.273926,46.9790039 C215.273926,45.958491 215.067629,45.1833523 214.655029,44.6535645 C214.24243,44.1237766 213.633305,43.8588867 212.827637,43.8588867 C212.031734,43.8588867 211.431154,44.1201146 211.025879,44.6425781 C210.620603,45.1650417 210.417969,45.9438425 210.417969,46.9790039 Z M228.787109,48.1508789 C228.787109,49.0932664 228.445316,49.8281224 227.761719,50.3554688 C227.078122,50.8828151 226.150396,51.1464844 224.978516,51.1464844 C223.708978,51.1464844 222.732425,50.9829118 222.048828,50.6557617 L222.048828,49.4545898 C222.488283,49.6401376 222.966794,49.7866206 223.484375,49.894043 C224.001956,50.0014654 224.514646,50.0551758 225.022461,50.0551758 C225.852543,50.0551758 226.477537,49.8977067 226.897461,49.5827637 C227.317385,49.2678207 227.527344,48.8295927 227.527344,48.2680664 C227.527344,47.8969708 227.452882,47.5930188 227.303955,47.3562012 C227.155029,47.1193836 226.906008,46.9008799 226.556885,46.7006836 C226.207762,46.5004873 225.676761,46.2734388 224.963867,46.0195312 C223.967768,45.6630842 223.256106,45.2407251 222.828857,44.7524414 C222.401609,44.2641577 222.187988,43.6269571 222.187988,42.8408203 C222.187988,42.0156209 222.498044,41.3588892 223.118164,40.8706055 C223.738284,40.3823218 224.558589,40.1381836 225.579102,40.1381836 C226.64356,40.1381836 227.622554,40.3334941 228.516113,40.7241211 L228.12793,41.8081055 C227.244136,41.4370099 226.38477,41.2514648 225.549805,41.2514648 C224.890622,41.2514648 224.37549,41.393065 224.004395,41.6762695 C223.633299,41.9594741 223.447754,42.3525365 223.447754,42.8554688 C223.447754,43.2265644 223.516113,43.5305164 223.652832,43.767334 C223.789551,44.0041516 224.020262,44.2214346 224.344971,44.4191895 C224.669679,44.6169443 225.166501,44.835448 225.835449,45.074707 C226.958502,45.4750997 227.731199,45.9047829 228.153564,46.3637695 C228.57593,46.8227562 228.787109,47.4184534 228.787109,48.1508789 Z M233.386719,50.1430664 C233.601564,50.1430664 233.809081,50.1271974 234.009277,50.095459 C234.209474,50.0637205 234.368163,50.0307619 234.485352,49.996582 L234.485352,50.9267578 C234.353515,50.9902347 234.159425,51.0427244 233.903076,51.0842285 C233.646727,51.1257326 233.416017,51.1464844 233.210937,51.1464844 C231.658195,51.1464844 230.881836,50.3286215 230.881836,48.6928711 L230.881836,43.9174805 L229.731934,43.9174805 L229.731934,43.331543 L230.881836,42.8261719 L231.394531,41.1123047 L232.097656,41.1123047 L232.097656,42.9726562 L234.426758,42.9726562 L234.426758,43.9174805 L232.097656,43.9174805 L232.097656,48.6416016 C232.097656,49.1250024 232.212401,49.4960925 232.441895,49.7548828 C232.671388,50.0136732 232.986326,50.1430664 233.386719,50.1430664 Z M243.018066,46.9790039 C243.018066,48.2876042 242.68848,49.3093225 242.029297,50.0441895 C241.370114,50.7790564 240.459478,51.1464844 239.297363,51.1464844 C238.579586,51.1464844 237.942386,50.978029 237.385742,50.6411133 C236.829099,50.3041975 236.399416,49.8208039 236.09668,49.190918 C235.793944,48.561032 235.642578,47.8237347 235.642578,46.9790039 C235.642578,45.6704036 235.969723,44.6511267 236.624023,43.9211426 C237.278324,43.1911585 238.186518,42.8261719 239.348633,42.8261719 C240.471685,42.8261719 241.36401,43.1997033 242.025635,43.9467773 C242.687259,44.6938514 243.018066,45.7045835 243.018066,46.9790039 Z M236.902344,46.9790039 C236.902344,48.0043997 237.10742,48.7856418 237.517578,49.3227539 C237.927736,49.859866 238.530758,50.128418 239.32666,50.128418 C240.122563,50.128418 240.726805,49.8610867 241.139404,49.326416 C241.552004,48.7917454 241.758301,48.0092825 241.758301,46.9790039 C241.758301,45.958491 241.552004,45.1833523 241.139404,44.6535645 C240.726805,44.1237766 240.11768,43.8588867 239.312012,43.8588867 C238.516109,43.8588867 237.915529,44.1201146 237.510254,44.6425781 C237.104978,45.1650417 236.902344,45.9438425 236.902344,46.9790039 Z M248.811523,42.8261719 C249.167971,42.8261719 249.487792,42.8554685 249.770996,42.9140625 L249.602539,44.0419922 C249.270506,43.9687496 248.97754,43.9321289 248.723633,43.9321289 C248.074216,43.9321289 247.518801,44.1957981 247.057373,44.7231445 C246.595945,45.2504909 246.365234,45.9072226 246.365234,46.6933594 L246.365234,51 L245.149414,51 L245.149414,42.9726562 L246.152832,42.9726562 L246.291992,44.4594727 L246.350586,44.4594727 C246.648439,43.9370091 247.007322,43.5341811 247.427246,43.2509766 C247.84717,42.967772 248.308591,42.8261719 248.811523,42.8261719 Z M254.363281,51.1464844 C253.176752,51.1464844 252.240482,50.7851599 251.554443,50.0625 C250.868405,49.3398401 250.525391,48.3364322 250.525391,47.0522461 C250.525391,45.7582943 250.843991,44.7304726 251.481201,43.96875 C252.118411,43.2070274 252.974116,42.8261719 254.04834,42.8261719 C255.054204,42.8261719 255.850095,43.1569791 256.436035,43.8186035 C257.021976,44.4802279 257.314941,45.3530219 257.314941,46.4370117 L257.314941,47.2060547 L251.785156,47.2060547 C251.80957,48.1484422 252.047605,48.8637671 252.499268,49.3520508 C252.95093,49.8403345 253.58691,50.0844727 254.407227,50.0844727 C255.271489,50.0844727 256.125972,49.9038104 256.970703,49.5424805 L256.970703,50.6264648 C256.541013,50.8120126 256.134523,50.945068 255.751221,51.0256348 C255.367918,51.1062016 254.905276,51.1464844 254.363281,51.1464844 Z M254.033691,43.8442383 C253.389157,43.8442383 252.875246,44.0541971 252.491943,44.4741211 C252.108641,44.8940451 251.882813,45.4750939 251.814453,46.2172852 L256.01123,46.2172852 C256.01123,45.4506798 255.840334,44.8635274 255.498535,44.4558105 C255.156737,44.0480937 254.66846,43.8442383 254.033691,43.8442383 Z M260.486328,48.0483398 L259.717285,48.0483398 L259.34375,40.2919922 L260.859863,40.2919922 L260.486328,48.0483398 Z M259.211914,50.2236328 C259.211914,49.559567 259.50488,49.2275391 260.09082,49.2275391 C260.374025,49.2275391 260.592529,49.3129874 260.746338,49.4838867 C260.900147,49.654786 260.977051,49.9013656 260.977051,50.2236328 C260.977051,50.5361344 260.898927,50.7790519 260.742676,50.9523926 C260.586425,51.1257333 260.369142,51.2124023 260.09082,51.2124023 C259.836913,51.2124023 259.626954,51.1354988 259.460938,50.9816895 C259.294921,50.8278801 259.211914,50.5751971 259.211914,50.2236328 Z" id="Welcome-to-X-Cart-De-Copy" fill="#8C96A7"></path>
                    <g id="Group-3" transform="translate(20.391304, 73.086957)">
                        <g id="Group-25">
                            <rect id="Rectangle-10" fill="#F7F8FA" x="0" y="0" width="80" height="80"></rect>
                            <path d="M55.0360531,29.1612903 L56.2891884,29.1612903 C59.0512385,29.1612903 61.2903226,31.4033811 61.2903226,34.1622459 L61.2903226,50.9990444 C61.2903226,53.7609959 59.0557354,56 56.2891884,56 L25.0011342,56 C22.2390841,56 20,53.7579092 20,50.9990444 L20,34.1622459 C20,31.4002944 22.2345872,29.1612903 25.0011342,29.1612903 L25.1612903,29.1612903 L25.1612903,28.6843948 C25.1612903,27.579536 26.0522658,26.683871 27.1613719,26.683871 L29.7676603,26.683871 C30.8722749,26.683871 31.7677419,27.5829495 31.7677419,28.6843948 L31.7677419,29.1612903 L35.1316888,29.1612903 L36.6446971,26.5891763 C37.4858515,25.1592137 39.5192222,24 41.1691359,24 L48.998606,24 C50.6562301,24 52.680535,25.1569095 53.5230449,26.5891763 L55.0360531,29.1612903 Z M45.1870968,52.4903226 C50.5460404,52.4903226 54.8903226,48.1460404 54.8903226,42.7870968 C54.8903226,37.4281531 50.5460404,33.083871 45.1870968,33.083871 C39.8281531,33.083871 35.483871,37.4281531 35.483871,42.7870968 C35.483871,48.1460404 39.8281531,52.4903226 45.1870968,52.4903226 Z M45.1870968,50.0129032 C49.1777995,50.0129032 52.4129032,46.7777995 52.4129032,42.7870968 C52.4129032,38.7963941 49.1777995,35.5612903 45.1870968,35.5612903 C41.1963941,35.5612903 37.9612903,38.7963941 37.9612903,42.7870968 C37.9612903,46.7777995 41.1963941,50.0129032 45.1870968,50.0129032 Z M42.4258065,42.1677419 C41.2856057,42.1677419 40.3612903,41.2434266 40.3612903,40.1032258 C40.3612903,38.963025 41.2856057,38.0387097 42.4258065,38.0387097 C43.5660072,38.0387097 44.4903226,38.963025 44.4903226,40.1032258 C44.4903226,41.2434266 43.5660072,42.1677419 42.4258065,42.1677419 Z M25.3677419,36.3870968 C25.3677419,35.3609161 26.2030314,34.5290323 27.2260107,34.5290323 L29.7030216,34.5290323 C30.7293151,34.5290323 31.5612903,35.3537617 31.5612903,36.3870968 C31.5612903,37.4132775 30.7260008,38.2451613 29.7030216,38.2451613 L27.2260107,38.2451613 C26.1997172,38.2451613 25.3677419,37.4204318 25.3677419,36.3870968 Z" id="Combined-Shape" fill="#93CAEE"></path>
                            <g id="Group-26" transform="translate(15.000000, 86.000000)" stroke="#A3ABBA" stroke-width="2" stroke-linecap="round">
                                <path d="M0.391304348,1.91304348 L50.3913043,1.91304348" id="Line-Copy-4"></path>
                                <path d="M8.39130435,6.91304348 L42.3913043,6.91304348" id="Line-Copy-5"></path>
                            </g>
                        </g>
                        <g id="Group-24" transform="translate(89.608696, 0.000000)">
                            <rect id="Rectangle-10-Copy" fill="#F7F8FA" x="0" y="0" width="80" height="80"></rect>
                            <path d="M57.2281543,24.3222991 C56.4139538,23.2860439 50.2704407,22.4718434 47.0876568,20.0292418 C47.0876568,20.0292418 46.6435474,19.8812053 46.3474745,20.2512965 C44.7930916,22.5458616 43.2387088,24.4703356 39.6118155,24.4703356 C35.9849222,24.4703356 34.4305394,22.5458616 32.8761565,20.2512965 C32.6541018,19.8812053 32.1359742,20.0292418 32.1359742,20.0292418 C28.9531903,22.3978251 22.8096772,23.2860439 21.9954767,24.3222991 C20.2190391,26.6168643 17.7024193,31.6501039 16,34.9069061 C17.5543828,37.4975441 21.1072579,39.051927 23.6238777,39.2739817 C24.4380783,38.4597811 25.6963882,36.0911978 26.4365705,36.0911978 C26.8066616,36.0911978 27.5468439,38.6078176 27.5468439,44.0111484 C27.5468439,48.0821511 26.2145158,56.2981747 26.2145158,58.8888127 C29.3972997,60.0731044 35.910904,59.9990862 39.6118155,59.9990862 C43.312727,59.9990862 49.8263313,60.0731044 53.0091152,58.8888127 C53.0091152,56.2981747 51.6767871,48.0821511 51.6767871,44.0111484 C51.6767871,38.6078176 52.4169694,36.0911978 52.7870605,36.0911978 C53.5272428,36.0911978 54.7855527,38.4597811 55.5997533,39.2739817 C58.0423549,39.051927 61.5952299,37.4235259 63.223631,34.9069061 C61.5212117,31.6501039 59.0045919,26.6168643 57.2281543,24.3222991 Z" id="Shape" fill="#AED97F" fill-rule="nonzero"></path>
                            <g id="Group-26" transform="translate(15.000000, 86.000000)" stroke="#A3ABBA" stroke-width="2" stroke-linecap="round">
                                <path d="M0.391304348,1.91304348 L50.3913043,1.91304348" id="Line-Copy-4"></path>
                                <path d="M8.39130435,6.91304348 L42.3913043,6.91304348" id="Line-Copy-5"></path>
                            </g>
                        </g>
                        <g id="Group-23" transform="translate(179.217391, 0.000000)">
                            <rect id="Rectangle-10-Copy-2" fill="#F7F8FA" x="0" y="0" width="80" height="80"></rect>
                            <path d="M51.2546072,49.8364144 C50.9806593,51.8745364 49.488826,54.0424747 47.614998,54.7117953 C47.614998,54.7117953 46.9146415,56 38.1498489,56 C29.3850563,56 28.6711172,54.7076718 28.6711172,54.7076718 C26.6436152,53.8615539 25,51.3944919 25,49.1800664 L25,25.0042916 C25,24.4496366 25.4564805,24 25.9988646,24 L50.3008333,24 C50.8524909,24 51.2996979,24.4466047 51.2996979,25.0042916 L51.2996979,28.3835616 L54.1819475,28.3835616 C56.9460245,28.3835616 59.1867516,30.6271826 59.1867516,33.3867718 L59.1867516,43.1063789 C59.1867516,45.8695756 56.948558,48.109589 54.1819475,48.109589 L51.3001159,48.109589 L51.3001159,49.8364144 L51.2546072,49.8364144 Z M51.3001159,31.4520548 L51.3001159,44.6027397 L54.1105075,44.6027397 C55.2286636,44.6027397 56.1182585,43.7085154 56.1182585,42.6054337 L56.1182585,33.4493608 C56.1182585,32.3559546 55.2193577,31.4520548 54.1105075,31.4520548 L51.3001159,31.4520548 Z" id="Mask-Copy" fill="#EF8889"></path>
                            <g id="Group-26" transform="translate(15.000000, 86.000000)" stroke="#A3ABBA" stroke-width="2" stroke-linecap="round">
                                <path d="M0.391304348,1.91304348 L50.3913043,1.91304348" id="Line-Copy-4"></path>
                                <path d="M8.39130435,6.91304348 L42.3913043,6.91304348" id="Line-Copy-5"></path>
                            </g>
                        </g>
                    </g>
                    <g id="Group-27">
                        <g id="Rectangle-3-Copy">
                            <use fill="#FAFBFD" fill-rule="evenodd" xlink:href="#path-3"></use>
                            <path stroke="#CBD7E8" stroke-width="1.4" d="M-0.7,7.02173913 L-0.7,14.0434783 L-0.7,14.7434783 L0,14.7434783 L300,14.7434783 L300.7,14.7434783 L300.7,14.0434783 L300.7,7.02173913 C300.7,2.76227555 297.237052,-0.7 292.971445,-0.7 L7.02855527,-0.7 C2.7566018,-0.7 -0.7,2.75514618 -0.7,7.02173913 Z"></path>
                        </g>
                        <g id="Group-22" transform="translate(6.608696, 5.782609)" fill="#CBD7E8">
                            <ellipse id="Oval-4" cx="1.65217391" cy="1.65217391" rx="1.65217391" ry="1.65217391"></ellipse>
                            <ellipse id="Oval-4-Copy" cx="7.43478261" cy="1.65217391" rx="1.65217391" ry="1.65217391"></ellipse>
                            <ellipse id="Oval-4-Copy-2" cx="13.2173913" cy="1.65217391" rx="1.65217391" ry="1.65217391"></ellipse>
                        </g>
                    </g>
                </g>
            </g>
        </g>
    </g>
</svg>